<?xml version="1.0" encoding="iso-8859-1"?>
<!-- Generator: Adobe Illustrator 19.0.0, SVG Export Plug-In . SVG Version: 6.00 Build 0)  -->
<svg version="1.1" id="Layer_1" xmlns="http://www.w3.org/2000/svg" xmlns:xlink="http://www.w3.org/1999/xlink" x="0px" y="0px"
	 viewBox="0 0 502 502" style="enable-background:new 0 0 502 502;" xml:space="preserve">
<g>
	<g>
		<polygon style="fill:#FFF9E6;" points="405.581,331.333 109.808,331.333 76.944,131.717 492,131.717 		"/>
		<circle style="fill:#5CC9C1;" cx="111.025" cy="401.929" r="27.995"/>
		<circle style="fill:#5CC9C1;" cx="375.151" cy="401.929" r="27.995"/>
		<g>
			<path d="M99.882,332.6l-0.074,33.026c-15.492,4.797-26.778,19.256-26.778,36.303c0,20.951,17.044,37.995,37.995,37.995
				c18.36,0,33.719-13.091,37.236-30.429h189.654c3.517,17.338,18.876,30.429,37.236,30.429c20.951,0,37.995-17.044,37.995-37.995
				c0-20.95-17.044-37.995-37.995-37.995c-16.596,0-30.732,10.7-35.894,25.561H146.92c-4.222-12.153-14.447-21.515-27.112-24.525
				v-23.637H405.58c3.987,0,7.593-2.368,9.177-6.027l86.419-199.616c1.338-3.091,1.031-6.647-0.818-9.463
				c-1.849-2.815-4.99-4.51-8.358-4.51H85.432l-8.358-50.771c-0.79-4.798-4.917-8.333-9.781-8.375l-57.207-0.496
				c-0.029,0-0.059,0-0.088,0c-5.482,0-9.95,4.42-9.998,9.914c-0.048,5.522,4.39,10.038,9.913,10.086l48.793,0.423L99.882,332.6z
				 M375.151,383.935c9.922,0,17.995,8.072,17.995,17.995s-8.073,17.995-17.995,17.995s-17.995-8.073-17.995-17.995
				S365.229,383.935,375.151,383.935z M129.02,401.929c0,9.922-8.072,17.995-17.995,17.995s-17.995-8.073-17.995-17.995
				s8.073-17.995,17.995-17.995S129.02,392.007,129.02,401.929z M399.013,321.333H118.296l-5.124-31.122h264.413
				c5.523,0,10-4.477,10-10s-4.477-10-10-10H109.88l-4.723-28.687h196.964c5.523,0,10-4.477,10-10s-4.477-10-10-10H101.864
				l-4.723-28.687h264.621c5.523,0,10-4.477,10-10s-4.477-10-10-10H93.849l-5.124-31.121h388.049L399.013,321.333z"/>
			<path d="M405.58,192.838h18.258c5.523,0,10-4.477,10-10s-4.477-10-10-10H405.58c-5.523,0-10,4.477-10,10
				S400.058,192.838,405.58,192.838z"/>
			<path d="M348.373,221.525c-5.523,0-10,4.477-10,10s4.477,10,10,10h21.909c5.523,0,10-4.477,10-10s-4.477-10-10-10H348.373z"/>
		</g>
	</g>
</g>
<g>
</g>
<g>
</g>
<g>
</g>
<g>
</g>
<g>
</g>
<g>
</g>
<g>
</g>
<g>
</g>
<g>
</g>
<g>
</g>
<g>
</g>
<g>
</g>
<g>
</g>
<g>
</g>
<g>
</g>
</svg>
